<svg id="레이어_1" data-name="레이어 1" xmlns="http://www.w3.org/2000/svg" viewBox="0 0 900 300"><defs><style>.cls-1{fill:#6bc8f2;}.cls-2{fill:#132f59;}.cls-3{fill:#e4c33c;}.cls-4{fill:#fff;}.cls-5{font-size:20px;fill:#231815;font-family:HCRDotum-Bold, HCR Dotum;font-weight:700;}.cls-6{letter-spacing:-0.03em;}.cls-7{letter-spacing:-0.03em;}.cls-8{fill:#e6c338;}.cls-9{fill:#ddd;}</style></defs><rect class="cls-1" x="-51.55" y="-17.18" width="1003.1" height="334.37"/><rect class="cls-2" x="32.36" y="47.06" width="159.7" height="55"/><rect class="cls-3" x="201.92" y="47.06" width="193.4" height="55"/><rect class="cls-3" x="32.36" y="173.37" width="275.95" height="26.45"/><path class="cls-4" d="M40.88,63.84A9.32,9.32,0,0,1,41.69,60a9.87,9.87,0,0,1,2.23-3.15,10.15,10.15,0,0,1,3.4-2.12,12,12,0,0,1,4.36-.76A11.79,11.79,0,0,1,56,54.7a10.11,10.11,0,0,1,3.39,2.12A9.87,9.87,0,0,1,61.58,60a9.32,9.32,0,0,1,.81,3.87,9.12,9.12,0,0,1-.81,3.84,9.7,9.7,0,0,1-2.23,3.11A10.16,10.16,0,0,1,56,72.86a12.22,12.22,0,0,1-4.28.74,12.43,12.43,0,0,1-4.36-.74,10.21,10.21,0,0,1-3.4-2.07,9.7,9.7,0,0,1-2.23-3.11A9.12,9.12,0,0,1,40.88,63.84Zm5.13,0a5.24,5.24,0,0,0,1.55,4,5.72,5.72,0,0,0,4.12,1.48,5.53,5.53,0,0,0,4.07-1.48,5.29,5.29,0,0,0,1.51-4,5.19,5.19,0,0,0-5.58-5.58,5.69,5.69,0,0,0-4.12,1.5A5.46,5.46,0,0,0,46,63.84ZM73.6,94.35h-27V83.14h21V80.31h-21V76.08H72.74v11.2h-21V90H73.6ZM79,65.59h-6.3v8.6H67.61V53.26h5.13v8H79Z"/><path class="cls-4" d="M89.44,80.94H93a56.43,56.43,0,0,0,8.14-.57q3.91-.56,7.07-1.32v4.27c-1,.27-2.13.52-3.42.74s-2.66.42-4.1.59-2.92.29-4.43.38-3,.14-4.39.14h-7.6v-17H96.64V60.82H84.26V56.5h17.51V72.34H89.44Zm22-4.19h-6.61V72.43h6.66V66.85h-6.66V62.53h6.61V53.26h5.13V94.8h-5.13Z"/><path class="cls-4" d="M162.43,88.77H123.91V84.45h17V75.81h5.13v8.64h16.38Zm-7.11-32.13a21.88,21.88,0,0,1-6.53,10.84,58.7,58.7,0,0,1,5.74,3.11A45.16,45.16,0,0,1,160,74.5l-3.24,3.11c-1.8-1.38-3.62-2.7-5.47-3.94a41.47,41.47,0,0,0-5.87-3.31,40.51,40.51,0,0,1-7.27,4.3,56.27,56.27,0,0,1-8.79,3.17l-2.75-3.55a58.94,58.94,0,0,0,7.56-2.68,50.32,50.32,0,0,0,6.37-3.31,25.67,25.67,0,0,0,4.7-3.67,11.18,11.18,0,0,0,2.61-3.8c-1.11.06-2.47.1-4.07.11s-3.26,0-5,0h-8.6V56.73h18.32l3.26,0Z"/><path class="cls-4" d="M167.51,57.36a16,16,0,0,1,4.05-2,13.59,13.59,0,0,1,4.32-.72q4.77,0,7.36,2.12a7.26,7.26,0,0,1,2.59,5.94,8.17,8.17,0,0,1-.45,2.63,13.59,13.59,0,0,1-1.17,2.43,16.11,16.11,0,0,1-1.58,2.11c-.57.65-1.12,1.23-1.66,1.74s-.88,1-1.26,1.32a7.5,7.5,0,0,0-1,1.17,5.07,5.07,0,0,0-.86,3A13.85,13.85,0,0,0,178,78.8a16.51,16.51,0,0,0,.48,2.14h-4.73a8.59,8.59,0,0,1-.45-2c-.06-.68-.09-1.33-.09-2a8.14,8.14,0,0,1,1-4.16,16.72,16.72,0,0,1,2.64-3.35l1.39-1.4a10.62,10.62,0,0,0,1.71-2.2,5.13,5.13,0,0,0,.68-2.61,3.83,3.83,0,0,0-1.38-3.31,6.48,6.48,0,0,0-3.93-1A9.32,9.32,0,0,0,169.63,61Zm8.33,27a3.59,3.59,0,0,1,1.48.29,3.94,3.94,0,0,1,1.17.76,3.81,3.81,0,0,1,.79,1.11,3.24,3.24,0,0,1,.29,1.35,3.3,3.3,0,0,1-1.08,2.47,3.7,3.7,0,0,1-2.65,1,3.45,3.45,0,0,1-2.59-1,3.54,3.54,0,0,1,0-5A3.44,3.44,0,0,1,175.84,84.36Z"/><path class="cls-2" d="M208.68,63.84a9.32,9.32,0,0,1,.81-3.87,10,10,0,0,1,2.23-3.15,10.25,10.25,0,0,1,3.4-2.12,12,12,0,0,1,4.36-.76,11.79,11.79,0,0,1,4.28.76,10.25,10.25,0,0,1,3.4,2.12A10,10,0,0,1,229.38,60a9.32,9.32,0,0,1,.81,3.87,9.12,9.12,0,0,1-.81,3.84,9.83,9.83,0,0,1-2.22,3.11,10.31,10.31,0,0,1-3.4,2.07,12.22,12.22,0,0,1-4.28.74,12.43,12.43,0,0,1-4.36-.74,10.31,10.31,0,0,1-3.4-2.07,9.86,9.86,0,0,1-2.23-3.11A9.12,9.12,0,0,1,208.68,63.84Zm5.13,0a5.21,5.21,0,0,0,1.56,4,5.68,5.68,0,0,0,4.11,1.48,5.57,5.57,0,0,0,4.08-1.48,5.32,5.32,0,0,0,1.5-4,5.18,5.18,0,0,0-5.58-5.58,5.65,5.65,0,0,0-4.11,1.5A5.42,5.42,0,0,0,213.81,63.84ZM241.4,94.35h-27V83.14h21V80.31h-21V76.08h26.14v11.2h-21V90H241.4Zm5.44-28.76h-6.3v8.6h-5.13V53.26h5.13v8h6.3Z"/><path class="cls-2" d="M257.24,80.94h3.6a56.43,56.43,0,0,0,8.14-.57q3.91-.56,7.07-1.32v4.27c-1,.27-2.13.52-3.42.74s-2.66.42-4.1.59-2.91.29-4.43.38-3,.14-4.39.14h-7.6v-17h12.33V60.82H252.06V56.5h17.51V72.34H257.24Zm22-4.19h-6.61V72.43h6.66V66.85h-6.66V62.53h6.61V53.26h5.13V94.8h-5.13Z"/><path class="cls-2" d="M330.23,84.45v4.32H291.71V84.45ZM298,77V56.77h26.28v4.32H303.09V72.66H324.6V77Z"/><path class="cls-2" d="M341,72.07h4.18a73.22,73.22,0,0,0,8.6-.47c2.61-.32,5.2-.74,7.78-1.28v4.14a67.78,67.78,0,0,1-8.3,1.37,89.47,89.47,0,0,1-9.25.47H335.9v-13h14V59.07H335.81V54.75H355V67.44H341Zm27.22,22.1H342V79.59h26.23Zm-5.13-10.26h-16v5.94h16Zm0-30.65h5.13V77.7h-5.13Z"/><path class="cls-2" d="M383,84.31a3.54,3.54,0,0,1,2.61,1,3.37,3.37,0,0,1,1,2.47,3.41,3.41,0,0,1-1,2.48,3.53,3.53,0,0,1-2.61,1,3.6,3.6,0,0,1-2.63-1,3.35,3.35,0,0,1-1.06-2.48,3.32,3.32,0,0,1,1.06-2.47A3.6,3.6,0,0,1,383,84.31Zm-3-29.16h6.07l-.94,25.52h-4.41Z"/><path class="cls-2" d="M52.28,162.72h9.48c0,1.88-.12,3.59-.25,5.13s-.28,3-.44,4.29h4.38V175H54.14v3.87h7.2v10.38h-18V178.89h7.41V175H39.23v-2.88H47.6c.18-1.26.31-2.42.38-3.49s.1-2.09.1-3.05H42.56v-2.88h9c0,1.88-.1,3.59-.19,5.13s-.23,3-.41,4.29h6.78c.2-1.26.36-2.42.47-3.49a29.87,29.87,0,0,0,.16-3.05H52.28Zm5.64,19.05H46.73v4.62H57.92Z"/><path class="cls-2" d="M72.23,174.69c.4-1.56.7-3,.89-4.21A23.55,23.55,0,0,0,73.4,167h-4v-2.88h7.23v1.74a40.49,40.49,0,0,1-.24,4.55,37.66,37.66,0,0,1-.75,4.3c.84,0,1.65,0,2.43,0l2.52-.11q.36-2.34.51-4.14t.15-3.42h-3.9v-2.88H84.5v1.65q0,2.43-.15,4.41t-.51,4.11l1.52-.13,1.54-.17v2.76c-1.26.18-2.56.33-3.91.45s-2.72.22-4.1.3v11.64H75.47V177.54l-.58,0h-7v-2.88Zm19.11,15H87.92v-6.87H81.8v-2.88h6.12V162h3.42Z"/><path class="cls-2" d="M105.8,175.29c1.26-.08,2.54-.16,3.83-.26s2.48-.21,3.58-.37v2.82c-1,.14-2.12.27-3.3.38s-2.38.2-3.6.27-2.43.11-3.64.15-2.37,0-3.47,0H95.27v-2.88h5.46l1.65-.05v-1.89a7.76,7.76,0,0,1-2.37-.73,6.05,6.05,0,0,1-1.71-1.27,5.08,5.08,0,0,1-1-1.61,4.88,4.88,0,0,1-.36-1.85,5.12,5.12,0,0,1,1.83-3.91,7,7,0,0,1,2.24-1.23,10.29,10.29,0,0,1,6.15,0,6.9,6.9,0,0,1,2.23,1.23,5,5,0,0,1,1.83,3.91,4.84,4.84,0,0,1-1.38,3.42,7.34,7.34,0,0,1-4,2Zm9.42,4.59a7.9,7.9,0,0,1-.48,3.09c1,.64,2,1.34,3,2.1a26.09,26.09,0,0,1,2.77,2.4L118,189.63a30.32,30.32,0,0,0-4.62-3.93,11.72,11.72,0,0,1-2.11,2.36,10.87,10.87,0,0,1-2.78,1.72,28.62,28.62,0,0,0-2.23-2.28c-.73-.66-1.42-1.25-2.06-1.77A8.4,8.4,0,0,1,102,188a17.05,17.05,0,0,1-2.88,1.65l-2.19-2.22a12,12,0,0,0,4.62-3.44,6.6,6.6,0,0,0,1.38-4.12h3.36a9.64,9.64,0,0,1-.09,1.65,6.85,6.85,0,0,1-.39,1.59l1.67,1.35c.57.46,1.08.91,1.54,1.35a5.83,5.83,0,0,0,2.19-2.57,7.84,7.84,0,0,0,.69-3.4ZM107.75,168a2.46,2.46,0,0,0-.91-1.93,4.21,4.21,0,0,0-2.81-.8,5.45,5.45,0,0,0-1.66.23,3.27,3.27,0,0,0-1.16.61,2.61,2.61,0,0,0-.67.87,2.33,2.33,0,0,0,0,2,2.33,2.33,0,0,0,.69.88,3.57,3.57,0,0,0,1.15.6,5.36,5.36,0,0,0,1.65.22,4.1,4.1,0,0,0,2.81-.82A2.48,2.48,0,0,0,107.75,168Zm6.36,10.89V162h3.42v6.78h3.87v2.88h-3.87v7.26Z"/><path class="cls-2" d="M125.09,163.41h13.17v2.88h-9.75v8.43h3a43.62,43.62,0,0,0,5.13-.28c1.6-.19,3.09-.43,4.47-.71v2.73a21.54,21.54,0,0,1-2.19.48q-1.23.21-2.58.36c-.9.1-1.83.18-2.79.23s-1.89.07-2.79.07h-5.7ZM147,189.15H128.9v-8.37h3.42v5.49H147Zm-10.8-17.7v-2.88H143V162h3.42v20.49H143v-11Z"/><path class="cls-2" d="M160.55,163.23h13.26v2.88H164v7.26h3a44.47,44.47,0,0,0,5.22-.28c1.6-.19,3.07-.4,4.41-.62v2.76c-.64.16-1.36.3-2.17.42s-1.67.23-2.58.32-1.84.16-2.79.21-1.89.07-2.81.07h-5.67Zm11.76,15.27a15.64,15.64,0,0,1,4,.45,9.61,9.61,0,0,1,2.83,1.21,5.26,5.26,0,0,1,1.71,1.82,4.64,4.64,0,0,1,.57,2.25,4.58,4.58,0,0,1-.57,2.24,5.21,5.21,0,0,1-1.71,1.8,9.11,9.11,0,0,1-2.83,1.2,18.54,18.54,0,0,1-7.94,0,9.13,9.13,0,0,1-2.85-1.2,5.21,5.21,0,0,1-1.71-1.8,4.58,4.58,0,0,1-.57-2.24,4.64,4.64,0,0,1,.57-2.25,5.26,5.26,0,0,1,1.71-1.82,9.63,9.63,0,0,1,2.85-1.21A15.64,15.64,0,0,1,172.31,178.5Zm0,2.88a8.44,8.44,0,0,0-4.35.84,2.39,2.39,0,0,0-1.32,2,2,2,0,0,0,.32,1.08,2.59,2.59,0,0,0,1,.89,6.56,6.56,0,0,0,1.76.6,12.76,12.76,0,0,0,2.59.22,13,13,0,0,0,2.61-.22,6.32,6.32,0,0,0,1.76-.6,2.63,2.63,0,0,0,1-.89,2,2,0,0,0,.31-1.08,2.08,2.08,0,0,0-.31-1.09,2.69,2.69,0,0,0-1-.92,6,6,0,0,0-1.76-.61A12.28,12.28,0,0,0,172.31,181.38Zm12.93-10.56H181V178h-3.42V162H181v5.94h4.2Z"/><path class="cls-2" d="M198.14,162.69a17.88,17.88,0,0,1-.72,5.67,46.21,46.21,0,0,1,7.35,7.17l-2.28,1.8q-1.5-1.8-2.92-3.33a30.1,30.1,0,0,0-3.23-3,16.32,16.32,0,0,1-7.2,7.38l-2.1-2.1a15,15,0,0,0,6-5.58,14.77,14.77,0,0,0,1.72-8Zm12.69,26.46H193v-8.76h3.42v5.88h14.4Zm-4-27.15h3.42v20.22h-3.42Z"/><path class="cls-2" d="M215.54,181.11h4.92c1,0,2.13,0,3.32,0s2.4-.08,3.63-.14,2.45-.14,3.66-.24,2.34-.22,3.4-.36v2.82c-1,.16-2.12.3-3.3.41s-2.38.19-3.6.25-2.43.1-3.64.14-2.36,0-3.44,0h-5Zm16.26-10.35a7.38,7.38,0,0,1-.49,2.69,6.62,6.62,0,0,1-3.69,3.75,8.7,8.7,0,0,1-6.09,0,6.85,6.85,0,0,1-2.28-1.52,6.49,6.49,0,0,1-1.44-2.23,7.54,7.54,0,0,1,0-5.4,6.53,6.53,0,0,1,1.44-2.24,7,7,0,0,1,2.28-1.52,8.7,8.7,0,0,1,6.09,0,6.79,6.79,0,0,1,2.26,1.51,6.42,6.42,0,0,1,1.43,2.23A7.55,7.55,0,0,1,231.8,170.76Zm-3.42,0a4.25,4.25,0,0,0-1-3,3.6,3.6,0,0,0-2.76-1.12,3.63,3.63,0,0,0-2.79,1.12,4.25,4.25,0,0,0-1.05,3,4.19,4.19,0,0,0,1.05,3,3.66,3.66,0,0,0,2.79,1.11,3.62,3.62,0,0,0,2.76-1.11A4.19,4.19,0,0,0,228.38,170.76Zm10.53,18.93h-3.42V162h3.42Z"/><path class="cls-2" d="M262.76,189.09h-3.42v-8l-.78,0h-7.08v-2.88h4.8c1,0,2.13,0,3.32,0s2.4-.08,3.63-.14,2.45-.14,3.66-.24,2.34-.22,3.4-.36v2.85c-1.14.16-2.33.3-3.58.41s-2.57.2-3.95.28Zm-.39-27v3H266l1.26,0a9.08,9.08,0,0,1-1,3,13.77,13.77,0,0,1-2,2.77,24.94,24.94,0,0,1,5.43,3.45l-2.16,2.07a18.37,18.37,0,0,0-2.53-1.9c-.91-.58-1.88-1.13-2.9-1.67a21.56,21.56,0,0,1-3.81,2.36,20.38,20.38,0,0,1-4.23,1.51l-1.59-2.46a25.26,25.26,0,0,0,3.65-1.3,27.57,27.57,0,0,0,3-1.61,14.7,14.7,0,0,0,2.28-1.71,7,7,0,0,0,1.35-1.62h-8.7v-2.88H259v-3Zm12.42,27.57h-3.42V162h3.42Z"/><path class="cls-2" d="M293.48,182.28H280.7v-18h12.78Zm-3.42-2.88V167.19h-5.94V179.4Zm8.58-17.4h3.42v27.69h-3.42Z"/><path class="cls-2" d="M339.17,173.55a16.06,16.06,0,0,1-.52,4.31,9.2,9.2,0,0,1-1.49,3.13,6.53,6.53,0,0,1-10.44,0,9.19,9.19,0,0,1-1.48-3.13,16,16,0,0,1-.53-4.31,15.83,15.83,0,0,1,.53-4.29,9.23,9.23,0,0,1,1.48-3.12,6.51,6.51,0,0,1,10.44,0,9.24,9.24,0,0,1,1.49,3.12A15.85,15.85,0,0,1,339.17,173.55Zm-3.42,0a11.27,11.27,0,0,0-1-5.19,3,3,0,0,0-5.61,0,11.26,11.26,0,0,0-1,5.19,11.38,11.38,0,0,0,1,5.21,3,3,0,0,0,5.61,0A11.39,11.39,0,0,0,335.75,173.55ZM343.31,162h3.42v27.69h-3.42Z"/><path class="cls-2" d="M364.43,168.93v5.49h13.29v2.88H351.5v-2.88H361v-5.49Zm2.28,9.57a7.52,7.52,0,0,1-.21,1.77,10,10,0,0,1-.6,1.74q1.17.51,2.43,1.17c.84.44,1.69.91,2.54,1.4s1.68,1,2.49,1.54,1.56,1.08,2.26,1.62L373,189.9a44.9,44.9,0,0,0-4.39-3.1,42.78,42.78,0,0,0-4.37-2.36,15.52,15.52,0,0,1-3.87,3.2,18.33,18.33,0,0,1-5.43,2.08l-1.68-2.37a19.84,19.84,0,0,0,7.28-3.46,7.27,7.27,0,0,0,2.71-5.39ZM355,162.75h18.54q-.06,3.18-.3,5.7t-.57,4.53h-3.39c.22-1.46.41-2.78.56-4a26.87,26.87,0,0,0,.22-3.39H355Z"/><path class="cls-2" d="M394.58,162.3h3.3V189h-3.3V174.39h-2.34q-.33,9.09-6,9.09a4.84,4.84,0,0,1-4.47-2.5q-1.47-2.5-1.47-7.4,0-9.9,5.94-9.9a4.85,4.85,0,0,1,4.17,2,11.4,11.4,0,0,1,1.74,5.86h2.4ZM389,173.58a16.35,16.35,0,0,0-.64-5.14c-.43-1.25-1.13-1.88-2.09-1.88s-1.58.63-2,1.88a22.36,22.36,0,0,0,0,10.29c.4,1.25,1.06,1.87,2,1.87s1.66-.62,2.09-1.87A16.42,16.42,0,0,0,389,173.58Zm14.25,16.11h-3.36V162h3.36Z"/><path class="cls-2" d="M418.07,163.65a33.8,33.8,0,0,1-.07,4.17,23.69,23.69,0,0,1-.65,3.9c.68.64,1.38,1.33,2.09,2.06s1.4,1.49,2.08,2.28,1.34,1.6,2,2.43,1.22,1.64,1.74,2.44l-2.7,1.92q-1.47-2.19-3-4.17a29.06,29.06,0,0,0-3.33-3.69,20.34,20.34,0,0,1-2.82,4.74,23.43,23.43,0,0,1-4.29,4.11l-2.49-2a25,25,0,0,0,3.53-3.36,18.33,18.33,0,0,0,2.64-4.05,19.56,19.56,0,0,0,1.56-4.87,23.7,23.7,0,0,0,.28-5.87Zm3.9,9.69v-2.88h5.34V162h3.42v27.69h-3.42V173.34Z"/><path class="cls-2" d="M458.93,173.55a16.06,16.06,0,0,1-.52,4.31,9.2,9.2,0,0,1-1.49,3.13,6.53,6.53,0,0,1-10.44,0,9.19,9.19,0,0,1-1.48-3.13,16,16,0,0,1-.53-4.31,15.83,15.83,0,0,1,.53-4.29,9.23,9.23,0,0,1,1.48-3.12,6.51,6.51,0,0,1,10.44,0,9.24,9.24,0,0,1,1.49,3.12A15.85,15.85,0,0,1,458.93,173.55Zm-3.42,0a11.27,11.27,0,0,0-1-5.19,3,3,0,0,0-5.61,0,11.26,11.26,0,0,0-1,5.19,11.38,11.38,0,0,0,1,5.21,3,3,0,0,0,5.61,0A11.39,11.39,0,0,0,455.51,173.55ZM463.07,162h3.42v27.69h-3.42Z"/><path class="cls-2" d="M482.66,189.09h-3.42v-8.37l-.64,0H472v-2.88h4.83c1,0,2.16,0,3.35,0s2.4-.08,3.63-.14,2.44-.14,3.64-.24,2.34-.22,3.42-.36v2.79c-1.2.16-2.51.3-3.94.42s-2.84.22-4.22.3Zm-8.25-13.26v-7.5h10v-2h-10v-2.82h13.26V171h-10v2h10.56v2.76Zm20.85,13.86h-3.42v-4.8h-6V182h6V162h3.42Z"/><path class="cls-2" d="M503.45,178V163.5h3.42V168h10.92V163.5h3.42V178H514v4.8h11.13v2.88H499.49v-2.88h11.13V178Zm14.34-7.2H506.87v4.38h10.92Z"/><path class="cls-2" d="M536.45,163.62a42.67,42.67,0,0,1,0,4.38,30.18,30.18,0,0,1-.62,4.44q1.74,2.07,3.26,4.07t2.65,3.82v-6.78h-3.57v-2.88h3.57v-8.43H545v26.82h-3.3v-7.77l-2.13,1.62a39.73,39.73,0,0,0-2.23-3.51q-1.27-1.8-2.63-3.42a22.64,22.64,0,0,1-2.22,4.17,21,21,0,0,1-3.33,3.81L526.49,182a17.62,17.62,0,0,0,5.43-7.92,27.75,27.75,0,0,0,1.17-10.5Zm11-1.68h3.36v27.81h-3.36Z"/><path class="cls-2" d="M581.09,182.85v2.88H555.41v-2.88h5.85v-4.62h3.42v4.62H572v-4.62h3.42v4.62Zm-3.66-12.36a6.47,6.47,0,0,1-.64,2.88,6.58,6.58,0,0,1-1.86,2.29,8.75,8.75,0,0,1-2.93,1.52,13.75,13.75,0,0,1-7.63,0,8.75,8.75,0,0,1-2.91-1.52,6.58,6.58,0,0,1-1.86-2.29,6.47,6.47,0,0,1-.65-2.88,6.55,6.55,0,0,1,.65-2.89,6.81,6.81,0,0,1,1.86-2.33,9,9,0,0,1,2.91-1.54,13.27,13.27,0,0,1,7.63,0,9,9,0,0,1,2.93,1.54,6.81,6.81,0,0,1,1.86,2.33A6.54,6.54,0,0,1,577.43,170.49Zm-3.42-.06a3.88,3.88,0,0,0-1.51-3.13,8,8,0,0,0-8.61,0,3.89,3.89,0,0,0-1.52,3.13,4,4,0,0,0,.39,1.74,4,4,0,0,0,1.13,1.4,5.6,5.6,0,0,0,1.81.92,9,9,0,0,0,5,0,5.61,5.61,0,0,0,1.83-.92,4,4,0,0,0,1.51-3.14Z"/><path class="cls-2" d="M588.29,182.7a2.36,2.36,0,0,1,1.74.69,2.32,2.32,0,0,1,0,3.3,2.36,2.36,0,0,1-1.74.69,2.4,2.4,0,0,1-1.75-.69,2.27,2.27,0,0,1,0-3.3A2.4,2.4,0,0,1,588.29,182.7Zm-2-19.44h4.05l-.63,17h-2.94Z"/><path class="cls-2" d="M37.59,236.25a7.89,7.89,0,0,0,4,1.08,5,5,0,0,0,1.68-.32,3.84,3.84,0,0,0,1.3-.82,3.39,3.39,0,0,0,.83-1.23,4.21,4.21,0,0,0,.28-1.57,3.48,3.48,0,0,0-.37-1.68,3.16,3.16,0,0,0-1-1.11,5,5,0,0,0-1.55-.63,9,9,0,0,0-1.93-.19,12.41,12.41,0,0,0-1.67.11,14.13,14.13,0,0,0-1.63.28l.44-8.21h8.54v1.39H39.39l-.33,5.17h0c.42-.06.84-.1,1.24-.13s.81,0,1.2,0a7.77,7.77,0,0,1,2.38.35,5.5,5.5,0,0,1,1.85,1,4.4,4.4,0,0,1,1.63,3.54,5.38,5.38,0,0,1-1.52,4.05,6,6,0,0,1-4.38,1.48,11.11,11.11,0,0,1-2.59-.32,6.44,6.44,0,0,1-2.06-.94Z"/><path class="cls-2" d="M54.85,221.58a4.5,4.5,0,0,1,4,2.15q1.4,2.15,1.4,6.6c0,2.93-.47,5.08-1.41,6.43a5,5,0,0,1-8,0c-.92-1.35-1.38-3.5-1.38-6.43s.46-5.17,1.38-6.6A4.51,4.51,0,0,1,54.85,221.58Zm0,1.44q-3.63,0-3.63,7.33a11.9,11.9,0,0,0,.9,5.35,3.05,3.05,0,0,0,5.44,0,11.56,11.56,0,0,0,.93-5.35C58.49,225.46,57.27,223,54.85,223Z"/><path class="cls-2" d="M72.09,221.65v9.65H63v-9.65Zm-7.37,8.17h5.66v-6.69H64.72Zm13.54,9v1.48H65.82v-6.37h1.72v4.89Zm2.8-12.57v1.47H77.84v7.38H76.12V220.62h1.72v5.59Z"/><path class="cls-2" d="M83,236.34v-1.48h4l2.45,0c.88,0,1.77-.06,2.67-.11s1.79-.12,2.66-.2,1.65-.17,2.37-.27v1.47c-.72.12-1.5.22-2.35.3s-1.72.14-2.61.19-1.77.07-2.66.09-1.71,0-2.51,0Zm11.72-9.49a5.47,5.47,0,0,1-.37,2,4.54,4.54,0,0,1-2.66,2.65,6.12,6.12,0,0,1-4.3,0,4.77,4.77,0,0,1-1.63-1.05,4.69,4.69,0,0,1-1-1.6,5.74,5.74,0,0,1,0-4,4.66,4.66,0,0,1,2.66-2.66,6.12,6.12,0,0,1,4.3,0,4.72,4.72,0,0,1,1.63,1.07,4.84,4.84,0,0,1,1,1.59A5.43,5.43,0,0,1,94.67,226.85Zm-1.72,0a3.56,3.56,0,0,0-.94-2.61,3.79,3.79,0,0,0-5,0,4.09,4.09,0,0,0,0,5.22,3.82,3.82,0,0,0,5,0A3.56,3.56,0,0,0,93,226.85Zm6.89-6.26v20.06H98.12V220.59Z"/><path class="cls-2" d="M117.68,221.74v3.72h2.75v-4.65h1.65V235h-1.65v-8.09h-2.75v4.26h-7.56v-9.45Zm-5.88,8H116v-6.5h-4.2Zm14.71,9.07v1.48H113.58V234h1.72v4.8Zm-.33-18.19v14.89H124.5V220.59Z"/><path class="cls-2" d="M145.47,232.66h-5.79v3.61h8.49v1.48H129.5v-1.48H138v-3.61h-5.31V222.14h12.51v1.47H134.37v2.88h10.44v1.44H134.37v3.26h11.1Z"/><path class="cls-2" d="M150.2,235.19a19.47,19.47,0,0,0,3.44-2.31,15.57,15.57,0,0,0,2.55-2.74,13.77,13.77,0,0,0,1.68-3.07,13.58,13.58,0,0,0,.85-3.33c-.89,0-1.8,0-2.72.06h-5.09v-1.48H159l1.57,0A17,17,0,0,1,158,230.4a17.86,17.86,0,0,1-6.67,5.94Zm18.94-6.63V230h-3.5v10.61h-1.72V220.59h1.72v8Z"/><path class="cls-2" d="M177.35,230.66v-9.14h9.27V223h-7.55v6.19h2.75a28.67,28.67,0,0,0,4.16-.27c1.22-.19,2.25-.36,3.09-.52v1.45a14.21,14.21,0,0,1-1.54.32c-.59.1-1.22.18-1.88.25s-1.34.14-2,.18-1.39.07-2.06.07Zm8.48,10.17a11.34,11.34,0,0,1-2.81-.31,6.84,6.84,0,0,1-2-.83,3.81,3.81,0,0,1-1.23-1.27,3.19,3.19,0,0,1-.42-1.6,3.26,3.26,0,0,1,.42-1.62,3.69,3.69,0,0,1,1.23-1.26,6.84,6.84,0,0,1,2-.83,11.9,11.9,0,0,1,2.81-.29,11.75,11.75,0,0,1,2.8.29,6.47,6.47,0,0,1,2,.84,3.65,3.65,0,0,1,1.23,1.28,3.15,3.15,0,0,1,.42,1.59,3.19,3.19,0,0,1-.42,1.6,3.71,3.71,0,0,1-1.23,1.27,6.71,6.71,0,0,1-2,.83A11.2,11.2,0,0,1,185.83,240.83Zm0-1.47a9.78,9.78,0,0,0,2.08-.2,5.6,5.6,0,0,0,1.49-.55,2.73,2.73,0,0,0,.89-.82,1.76,1.76,0,0,0,.3-1,1.83,1.83,0,0,0-.29-1,2.56,2.56,0,0,0-.88-.8,5.47,5.47,0,0,0-1.49-.55,10.51,10.51,0,0,0-4.18,0,5.47,5.47,0,0,0-1.49.55,2.69,2.69,0,0,0-.89.8,1.72,1.72,0,0,0,0,1.94,2.73,2.73,0,0,0,.89.82,5.47,5.47,0,0,0,1.49.55A9.78,9.78,0,0,0,185.83,239.36Zm9.47-14.23v1.47h-3.22v6h-1.71v-12h1.71v4.54Z"/><path class="cls-2" d="M204.39,221.52a10,10,0,0,1-.12,1.91,12.08,12.08,0,0,1-.43,1.85c1.06.8,2.09,1.65,3.1,2.58a32.85,32.85,0,0,1,2.63,2.71l-1.3,1.12q-.53-.66-1.14-1.32c-.4-.44-.82-.87-1.25-1.29s-.87-.82-1.31-1.2-.88-.73-1.32-1.06a12.14,12.14,0,0,1-2.07,3.06,12.47,12.47,0,0,1-3.09,2.38L197,231.12a11.78,11.78,0,0,0,4.28-4.11,10.59,10.59,0,0,0,1.47-5.14v-.59a1.5,1.5,0,0,0,0-.2h1.71ZM203,234.05v4.73h11v1.48H201.27v-6.21Zm8.88,1V220.59h1.72V235.1Z"/><path class="cls-2" d="M217.19,229.05h19.13v1.47H217.19Zm16.25-5a2.92,2.92,0,0,1-1.63,2.56,13.45,13.45,0,0,1-10,0,2.89,2.89,0,0,1-1.64-2.56,2.62,2.62,0,0,1,.42-1.43,3.38,3.38,0,0,1,1.25-1.13,7.3,7.3,0,0,1,2.08-.75,15.95,15.95,0,0,1,5.79,0,7.19,7.19,0,0,1,2.08.75,3.59,3.59,0,0,1,1.26,1.13A2.63,2.63,0,0,1,233.44,224.09Zm.31,16.54H220.29v-4.89h11.19v-1.93H220.29v-1.48H233.2v4.84H222v2h11.74Zm-2-16.54c0-.58-.4-1.08-1.21-1.49a11.53,11.53,0,0,0-7.46,0c-.8.41-1.2.91-1.2,1.49s.4,1,1.2,1.45a11.93,11.93,0,0,0,7.47,0C231.32,225.13,231.72,224.65,231.72,224.09Z"/><path class="cls-2" d="M244.14,235.15a17.16,17.16,0,0,0,3.5-2.27,15.25,15.25,0,0,0,2.55-2.75,13.57,13.57,0,0,0,1.68-3.1,14.59,14.59,0,0,0,.84-3.29c-1.81,0-3.59.07-5.36.07h-2.42v-1.48H253l1.56,0a17.05,17.05,0,0,1-2.58,8.12,17.46,17.46,0,0,1-6.74,5.93Zm14.58,5.5V220.59h1.71v20.06Z"/><path class="cls-2" d="M265.37,235.46V222.33h9.25v1.48h-7.54V234h2.43a25.31,25.31,0,0,0,4.15-.31q1.88-.3,3.09-.57v1.48c-.44.11-.95.23-1.54.34s-1.21.2-1.87.28-1.34.15-2,.19-1.38.07-2.06.07Zm18-7.18v1.47h-3.5v10.9h-1.72V220.59h1.72v7.69Z"/><path class="cls-2" d="M287.72,229.45v4.93h3.06a30.92,30.92,0,0,0,4.38-.28c1.32-.18,2.42-.37,3.3-.58V235q-.72.2-1.65.36c-.61.11-1.27.21-2,.29s-1.4.14-2.13.19-1.47.06-2.21.06H286V228h7.16v-4.33H286V222.2h8.91v7.25Zm12,11.2V220.59h1.72v20.06Z"/><path class="cls-2" d="M324,236.21v1.47H305.31v-1.47h7.27v-7.29h1.72v7.29Zm-5.88-2.67a39.17,39.17,0,0,0,.9-4.72,44.78,44.78,0,0,0,.37-5H308.17v-1.47H321.1c0,.92-.06,1.87-.13,2.85s-.17,1.95-.28,2.91-.24,1.92-.38,2.83-.31,1.78-.49,2.59Z"/><path class="cls-2" d="M337.59,221a5.61,5.61,0,0,1,2,.36,4.66,4.66,0,0,1,1.61,1,4.47,4.47,0,0,1,1.05,1.56,5.53,5.53,0,0,1,0,4.08,4.57,4.57,0,0,1-1.05,1.56,4.84,4.84,0,0,1-1.61,1,5.93,5.93,0,0,1-4.07,0,4.78,4.78,0,0,1-1.62-1,4.62,4.62,0,0,1-1.07-1.56,5.53,5.53,0,0,1,0-4.08,4.52,4.52,0,0,1,1.07-1.56,4.61,4.61,0,0,1,1.62-1A5.59,5.59,0,0,1,337.59,221Zm8.66,11.63a9.75,9.75,0,0,1-.35,2.67c.74.55,1.51,1.19,2.3,1.9s1.48,1.4,2.1,2.06L349,240.37c-.59-.66-1.19-1.29-1.8-1.88a21,21,0,0,0-1.92-1.65,8.57,8.57,0,0,1-3.39,3.66c-.62-.75-1.2-1.42-1.76-2s-1.07-1.11-1.54-1.57a7.62,7.62,0,0,1-1.6,2,10.72,10.72,0,0,1-2.28,1.5l-1.08-1.07a9,9,0,0,0,3.3-2.87A6.45,6.45,0,0,0,338,233.1v-.42h1.7a10.69,10.69,0,0,1-.11,1.35,13.27,13.27,0,0,1-.29,1.45l1.52,1.47c.51.5,1,1,1.37,1.46a6,6,0,0,0,1.67-2.13,7.57,7.57,0,0,0,.7-2.94,1.29,1.29,0,0,0,0-.34c0-.11,0-.22,0-.34Zm-8.66-10.15a3.29,3.29,0,0,0-2.45,1,3.41,3.41,0,0,0-.94,2.53,3.45,3.45,0,0,0,.94,2.54,3.26,3.26,0,0,0,2.45,1,3.64,3.64,0,0,0,1.38-.25,3.06,3.06,0,0,0,1.07-.72,3.24,3.24,0,0,0,.68-1.1,4.38,4.38,0,0,0,0-2.86,3.1,3.1,0,0,0-.68-1.09,3.18,3.18,0,0,0-1.07-.71A3.64,3.64,0,0,0,337.59,222.51Zm9,9.23V220.59h1.72v11.15Z"/><path class="cls-2" d="M352,229.4h19.14v1.48H352Zm10.84-8.52a6.48,6.48,0,0,1-.15,1.1,5.13,5.13,0,0,1-.36,1c1.16.47,2.37,1,3.62,1.68a39.45,39.45,0,0,1,3.6,2.1L368.29,228a32.72,32.72,0,0,0-3.36-2c-1.18-.62-2.34-1.17-3.49-1.66a9.43,9.43,0,0,1-3,2.27,16.54,16.54,0,0,1-4.12,1.43l-.88-1.27a14.4,14.4,0,0,0,5.47-2.36,5.42,5.42,0,0,0,2.13-3.32.77.77,0,0,0,0-.21,1.48,1.48,0,0,1,0-.21h1.72ZM368,240.35H355.17v-8h1.71v2.45h9.43v-2.45H368Zm-1.72-1.48v-2.62h-9.43v2.62Z"/><path class="cls-2" d="M374,234.86V222.07h1.71v11.32h3.44a24.83,24.83,0,0,0,4.13-.32c1.24-.21,2.26-.42,3.07-.61V234q-.66.18-1.53.33c-.58.11-1.2.2-1.86.28s-1.34.14-2,.2-1.38.07-2,.07Zm13.65,5.79V220.59h1.72v20.06Z"/><path class="cls-2" d="M394.32,235.46V222.33h9.25v1.48H396V234h2.42a25.31,25.31,0,0,0,4.15-.31c1.25-.2,2.29-.39,3.09-.57v1.48c-.44.11-.95.23-1.54.34s-1.21.2-1.87.28-1.34.15-2,.19-1.38.07-2.06.07Zm18-7.18v1.47h-3.5v10.9h-1.72V220.59h1.72v7.69Z"/><path class="cls-2" d="M415.74,236a1.42,1.42,0,0,1,1,.37,1.55,1.55,0,0,1,0,2,1.6,1.6,0,0,1-2,0,1.52,1.52,0,0,1,0-2A1.41,1.41,0,0,1,415.74,236Z"/><text class="cls-5" transform="translate(704.06 285.52)">ww<tspan class="cls-6" x="30.4" y="0">w</tspan><tspan x="44.94" y="0">.aljd</tspan><tspan class="cls-7" x="83.68" y="0">r</tspan><tspan x="91.52" y="0">eam.com</tspan></text><circle class="cls-2" cx="863.34" cy="209.07" r="15.04"/><path class="cls-8" d="M751.23,47.06H750v61.41a31.38,31.38,0,0,1,3.65-.22,30.56,30.56,0,0,1,0,61.11,29.32,29.32,0,0,1-3.65-.23v61.41l1.21,0a91.76,91.76,0,1,0,0-183.51Z"/><polygon class="cls-2" points="684.26 47.05 585.83 225.78 651.59 225.78 673.04 186.84 684.26 166.46 684.26 47.05"/><polygon class="cls-9" points="750.02 108.48 750.02 47.07 750.02 47.05 684.26 47.05 684.26 166.46 684.26 201.53 684.26 230.57 750.02 230.57 750.02 230.55 750.02 169.14 750.02 108.48"/></svg>