<?xml version="1.0" encoding="utf-8"?>
<!-- Generator: Adobe Illustrator 25.4.1, SVG Export Plug-In . SVG Version: 6.00 Build 0)  -->
<svg version="1.1" id="레이어_1" xmlns="http://www.w3.org/2000/svg" xmlns:xlink="http://www.w3.org/1999/xlink" x="0px"
	 y="0px" viewBox="0 0 335.49 228.26" style="enable-background:new 0 0 335.49 228.26;" xml:space="preserve">
<style type="text/css">
	.st0{fill:#1B2E63;}
	.st1{fill:#E0DDE5;}
	.st2{fill:#F5CF1F;}
</style>
<polygon class="st0" points="191.9,13.14 191.67,13.14 191.67,13.56 "/>
<g>
	<circle class="st0" cx="307.1" cy="189.04" r="16.13"/>
	<polygon class="st0" points="117.75,17.73 12.97,207.78 82.97,207.78 117.75,144.71 117.75,46.33 	"/>
	<polygon class="st1" points="187.75,17.32 182.69,17.32 117.98,17.32 117.75,17.32 117.75,17.73 117.75,46.33 117.75,144.71 
		117.75,182.86 117.75,211.87 182.69,211.87 187.75,211.87 187.75,17.73 	"/>
	<path class="st2" d="M187.18,17.2c-1.51,0-3,0.05-4.49,0.11h5.06V83.6c1.76-0.31,3.57-0.5,5.42-0.5
		c17.19,0,31.12,13.93,31.12,31.12s-13.93,31.12-31.12,31.12c-1.85,0-3.65-0.19-5.42-0.5v67.04h-5.06c1.49,0.07,2.99,0.11,4.49,0.11
		c53.79,0,97.39-43.6,97.39-97.39C284.57,60.81,240.97,17.2,187.18,17.2z"/>
</g>
</svg>
